<svg id="Layer_1" data-name="Layer 1" xmlns="http://www.w3.org/2000/svg" viewBox="0 0 324 95.13"><defs><style>.cls-1{fill:#a1aab0;}.cls-2{fill:#f58520;}</style></defs><path class="cls-1" d="M23.86,101.76A16.61,16.61,0,0,1,7.24,84.85,16.71,16.71,0,0,1,23.7,68.51h.16a16.57,16.57,0,0,1,6.38,1.26,5.2,5.2,0,0,0,6.09-1.59L49,52.05a5.2,5.2,0,0,0,.56-5.56,8.6,8.6,0,0,1-.92-4.2A8.69,8.69,0,0,1,57,33.94h.32A8.68,8.68,0,0,1,66,42.6c0,.19,0,.39,0,.65a5.21,5.21,0,0,0,2.64,4.93L86.2,58.1a5.22,5.22,0,0,0,6.19-.8,15.58,15.58,0,0,1,10.91-4.44h.41A15.67,15.67,0,1,1,87.63,68.53,15.75,15.75,0,0,1,88,65a5.21,5.21,0,0,0-2.52-5.71L68,49.38a5.19,5.19,0,0,0-5.59.29,8.59,8.59,0,0,1-5,1.6,8.73,8.73,0,0,1-2-.22,5.28,5.28,0,0,0-1.18-.14,5.22,5.22,0,0,0-4.09,2L37.41,69a5.21,5.21,0,0,0-.11,6.3,16.48,16.48,0,0,1,3.19,10.15,16.77,16.77,0,0,1-16.31,16.27Z" transform="translate(-7.24 -6.63)"/><path class="cls-2" d="M38.47,19.24A11.62,11.62,0,0,1,49.3,6.66,11.72,11.72,0,0,1,61.67,17.2v.11a11.7,11.7,0,0,1-.51,4.52A3.61,3.61,0,0,0,62.63,26l12,7.92a3.62,3.62,0,0,0,3.91.07,6.08,6.08,0,0,1,9.2,4.46c0,.07,0,.15,0,.22a6.08,6.08,0,0,1-5.55,6.56l-.45,0a3.65,3.65,0,0,0-3.29,2.12l-5.9,12.85A3.65,3.65,0,0,0,72.25,62a3.69,3.69,0,0,0,1.24,2.45,10.89,10.89,0,0,1,3.73,7.35c0,.1,0,.19,0,.29A11,11,0,1,1,67.86,61.9a3.65,3.65,0,0,0,3.84-2.09L77.6,47a3.65,3.65,0,0,0-.53-3.88,6.07,6.07,0,0,1-1.42-3.41,6.4,6.4,0,0,1,0-1.38,3.31,3.31,0,0,0,0-.83,3.64,3.64,0,0,0-1.62-2.74l-12-7.93a3.67,3.67,0,0,0-4.41.29,11.48,11.48,0,0,1-6.9,2.82,11.73,11.73,0,0,1-12.3-10.43A1.79,1.79,0,0,1,38.47,19.24Z" transform="translate(-7.24 -6.63)"/><path class="cls-2" d="M272.16,51.69a6.7,6.7,0,0,1,.25-1.78A3.64,3.64,0,0,1,273,48.4a4.31,4.31,0,0,1,1-1,3.34,3.34,0,0,1,1.4-.72,6.88,6.88,0,0,1,1.64-.2,6.49,6.49,0,0,1,1.77.23,3.83,3.83,0,0,1,1.43.77,4,4,0,0,1,.88,1,6.37,6.37,0,0,1,.79,3.26v3.38h13.7V48.48c0-.95,0-1.86-.12-2.72s-.18-1.67-.3-2.43a11.51,11.51,0,0,0-3.59-6.87,10.89,10.89,0,0,0-7.31-2.29q-8.16,0-13.21,7.27l-.73-.57.36-.6c.12-.21.25-.43.37-.66a7.29,7.29,0,0,0,.73-1.38c.12-.34.28-.78.49-1.31a6.43,6.43,0,0,0,.39-1.29,13.86,13.86,0,0,0,.09-1.47h-13.7V55.07h13.09Z" transform="translate(-7.24 -6.63)"/><path class="cls-2" d="M281.9,67.61a9.17,9.17,0,0,1-.18,1.77,4.24,4.24,0,0,1-.64,1.52,5.88,5.88,0,0,1-.94,1,4.24,4.24,0,0,1-1.46.72,6.9,6.9,0,0,1-1.65.2,5.78,5.78,0,0,1-1.7-.23,3.74,3.74,0,0,1-1.49-.78,3.47,3.47,0,0,1-.88-1,6.08,6.08,0,0,1-.8-3.2v-4H259.07v38.12h13.7V81.52a10.12,10.12,0,0,0,1.89,1.2,19.53,19.53,0,0,0,2,1,20.27,20.27,0,0,0,2.28.75,16.6,16.6,0,0,0,4.81.63,15,15,0,0,0,4.33-.58,9.85,9.85,0,0,0,3.28-1.74A10.11,10.11,0,0,0,293.72,80a12.74,12.74,0,0,0,1.43-4.09,28.82,28.82,0,0,0,.45-5.24v-7H281.9Z" transform="translate(-7.24 -6.63)"/><path class="cls-2" d="M240.26,85.08H254V63.67h-13.7Zm0-70.23V54.94H254V14.85Z" transform="translate(-7.24 -6.63)"/><path class="cls-2" d="M126.44,85.08h13.7V63.67h-13.7Zm0-50.92V54.94h13.7V34.16Z" transform="translate(-7.24 -6.63)"/><rect class="cls-2" x="119.2" y="8.23" width="13.7" height="11.9"/><path class="cls-2" d="M145.27,85.08H159V63.89h-13.7Zm21.61,0h13.7V63.89h-13.7ZM180.46,45c-.08-.78-.18-1.51-.3-2.21a11.24,11.24,0,0,0-3.53-6.48,9.08,9.08,0,0,0-3.14-1.66,12.52,12.52,0,0,0-3.62-.55,11.09,11.09,0,0,0-1.43.09l-1.37.2a14.07,14.07,0,0,0-2.74.93,13.7,13.7,0,0,0-2.56,1.51,24.43,24.43,0,0,0-2.31,2,20.1,20.1,0,0,0-2.2,2.63l-.73-.58a7,7,0,0,0,.37-.61q.18-.32.36-.66a8.16,8.16,0,0,0,.74-1.39c.12-.35.28-.79.48-1.34a5.71,5.71,0,0,0,.49-2.2V14.86h-13.7V55.24H159v-7l.46-.32a4.83,4.83,0,0,1,.45-.26c.41-.19.73-.36,1-.49a3.11,3.11,0,0,1,.91-.32c.32-.08.63-.15.91-.2a4.49,4.49,0,0,1,.92-.09,5.66,5.66,0,0,1,1.09.12,2.77,2.77,0,0,1,1.59,1,5.74,5.74,0,0,1,.48,1,3.66,3.66,0,0,1,.12,1.07v5.5h13.7V47.42A23.53,23.53,0,0,0,180.46,45Z" transform="translate(-7.24 -6.63)"/><path class="cls-1" d="M128.22,97.46a2.9,2.9,0,0,0,.1.79,2.53,2.53,0,0,0,.33.73,2.2,2.2,0,0,0,.48.53,2.05,2.05,0,0,0,.64.33,2.42,2.42,0,0,0,.76.12,2.19,2.19,0,0,0,1.15-.3,2.08,2.08,0,0,0,.75-.83,2.15,2.15,0,0,0,.1-.27,1.67,1.67,0,0,0,.08-.3h1.61a3.24,3.24,0,0,1-.26,1.06,3.62,3.62,0,0,1-2.3,2,3.75,3.75,0,0,1-1.12.16,4,4,0,0,1-1.17-.18,3.81,3.81,0,0,1-1.15-.59,3.74,3.74,0,0,1-.85-.88,4.35,4.35,0,0,1-.53-1.11,4.44,4.44,0,0,1-.15-.63,4.65,4.65,0,0,1,0-.66,4.21,4.21,0,0,1,.2-1.3,4.09,4.09,0,0,1,.54-1.11,4,4,0,0,1,1.91-1.44,3.2,3.2,0,0,1,.61-.15,3.39,3.39,0,0,1,.64-.06,3.79,3.79,0,0,1,2.09.61,3.88,3.88,0,0,1,.8.71,4.25,4.25,0,0,1,.54.88,3.51,3.51,0,0,1,.25,1h-1.61a1.67,1.67,0,0,0-.19-.57,2.09,2.09,0,0,0-.31-.48,2.44,2.44,0,0,0-.43-.35,1.94,1.94,0,0,0-.53-.23,2.56,2.56,0,0,0-.62-.07,2.13,2.13,0,0,0-.78.13,2.07,2.07,0,0,0-.61.32,2.37,2.37,0,0,0-.81,1.24,2.35,2.35,0,0,0-.09.4C128.23,97.17,128.22,97.32,128.22,97.46Z" transform="translate(-7.24 -6.63)"/><path class="cls-1" d="M137.68,101.5a3,3,0,0,1-1-.15,3.17,3.17,0,0,1-.79-.43,3.13,3.13,0,0,1-.63-.63,3,3,0,0,1-.43-.84,3.26,3.26,0,0,1-.14-1,3.22,3.22,0,0,1,.14-.93,3,3,0,0,1,.42-.82,3.33,3.33,0,0,1,.65-.65,3.19,3.19,0,0,1,.8-.41,3.28,3.28,0,0,1,.45-.11,2.63,2.63,0,0,1,.49,0,2.91,2.91,0,0,1,.92.15,3,3,0,0,1,.82.42,2.94,2.94,0,0,1,.63.64,2.8,2.8,0,0,1,.43.82,3.41,3.41,0,0,1,.1.46,2.42,2.42,0,0,1,0,.47,3.49,3.49,0,0,1-.12.87,2.93,2.93,0,0,1-.44.91,2.86,2.86,0,0,1-.65.65,3.23,3.23,0,0,1-.8.42,3.45,3.45,0,0,1-.46.12A3.59,3.59,0,0,1,137.68,101.5Zm0-1.44a1.41,1.41,0,0,0,.45-.07,1.2,1.2,0,0,0,.4-.22,1.5,1.5,0,0,0,.34-.38A1.54,1.54,0,0,0,139,99a1.4,1.4,0,0,0,.06-.24,2,2,0,0,0,0-.25A1.57,1.57,0,0,0,139,98a1.54,1.54,0,0,0-.2-.43,1.65,1.65,0,0,0-.29-.31,1.22,1.22,0,0,0-.42-.24,1.76,1.76,0,0,0-.45-.07,1.37,1.37,0,0,0-.85.29,1.4,1.4,0,0,0-.31.33,1.15,1.15,0,0,0-.21.43q0,.1-.06.24a2.11,2.11,0,0,0,0,.25,1.72,1.72,0,0,0,.06.44,1.58,1.58,0,0,0,.23.47,1.18,1.18,0,0,0,.3.33,1.08,1.08,0,0,0,.41.22A1.16,1.16,0,0,0,137.68,100.06Z" transform="translate(-7.24 -6.63)"/><path class="cls-1" d="M145.22,101.44h-1.51a.49.49,0,0,1,0-.11.56.56,0,0,1,0-.15c0-.06,0-.11.05-.15a1,1,0,0,1,.09-.17l0-.07a.25.25,0,0,1,0-.07l-.08-.07a1.74,1.74,0,0,1-.2.3,1.34,1.34,0,0,1-.25.23,1.08,1.08,0,0,1-.29.18,1.42,1.42,0,0,1-.33.11l-.18,0h-.19c-.84,0-1.27-.56-1.27-1.69v-2.6a2.14,2.14,0,0,1,.25-1.07,1.29,1.29,0,0,1,.28-.33,1,1,0,0,1,.39-.2,1.23,1.23,0,0,1,.44-.07l.25,0,.24.06a1.33,1.33,0,0,1,.24.12l.21.14a2.13,2.13,0,0,1,.22.21v-2.7h1.51Zm-1.45-2V97.59a.76.76,0,0,0-.08-.38.47.47,0,0,0-.1-.11.37.37,0,0,0-.16-.09.58.58,0,0,0-.19,0l-.18,0a.51.51,0,0,0-.16.09.43.43,0,0,0-.11.12.38.38,0,0,0-.06.17.76.76,0,0,0,0,.21v1.86a.74.74,0,0,0,.09.38l.1.12a.42.42,0,0,0,.16.09l.19,0a.55.55,0,0,0,.18,0,.35.35,0,0,0,.16-.08.53.53,0,0,0,.1-.12.38.38,0,0,0,.07-.18A.75.75,0,0,0,143.77,99.45Z" transform="translate(-7.24 -6.63)"/><path class="cls-1" d="M151.42,98.5V99h-4.08a1.35,1.35,0,0,0,.13.37,1.14,1.14,0,0,0,.21.3,1.78,1.78,0,0,0,.26.22,1.42,1.42,0,0,0,.35.13l.18,0h.2a1.55,1.55,0,0,0,.59-.1,1.31,1.31,0,0,0,.44-.3l.07-.11a.27.27,0,0,0,.06-.1h1.54a2.21,2.21,0,0,1-.28.72,2.17,2.17,0,0,1-.4.52,2.67,2.67,0,0,1-.57.43,2.63,2.63,0,0,1-.69.28,2.57,2.57,0,0,1-.38.08,2.61,2.61,0,0,1-.4,0,2.52,2.52,0,0,1-.93-.15,2.69,2.69,0,0,1-.75-.4,2.79,2.79,0,0,1-1-1.47,3.43,3.43,0,0,1,0-1.94,2.82,2.82,0,0,1,1-1.46,2.81,2.81,0,0,1,1.67-.54,2.67,2.67,0,0,1,.88.15,2.5,2.5,0,0,1,.75.42,3.3,3.3,0,0,1,.6.64,3.08,3.08,0,0,1,.38.82A3.22,3.22,0,0,1,151.42,98.5Zm-4-.51h2.56a1.4,1.4,0,0,0-.36-.61A1.25,1.25,0,0,0,149,97l-.17,0h-.19a1.3,1.3,0,0,0-.65.18,1.33,1.33,0,0,0-.24.19,1.48,1.48,0,0,0-.23.3A1.43,1.43,0,0,0,147.37,98Z" transform="translate(-7.24 -6.63)"/><path class="cls-1" d="M152.64,101.5a1,1,0,0,1-.3,0,.68.68,0,0,1-.25-.14.8.8,0,0,1-.21-.2.9.9,0,0,1-.13-.26,1,1,0,0,1-.05-.29,1,1,0,0,1,.05-.31,1.23,1.23,0,0,1,.14-.25.64.64,0,0,1,.2-.2.92.92,0,0,1,.26-.14,1,1,0,0,1,.29,0,1,1,0,0,1,.3.05.79.79,0,0,1,.26.12,1.8,1.8,0,0,1,.19.2,1.26,1.26,0,0,1,.14.26,1.15,1.15,0,0,1,0,.31,1.06,1.06,0,0,1,0,.29.7.7,0,0,1-.13.26,1.34,1.34,0,0,1-.2.21.91.91,0,0,1-.26.13l-.14,0Z" transform="translate(-7.24 -6.63)"/><path class="cls-1" d="M157.53,97.46a2.9,2.9,0,0,0,.1.79A2.53,2.53,0,0,0,158,99a2.2,2.2,0,0,0,.48.53,2.05,2.05,0,0,0,.64.33,2.46,2.46,0,0,0,.76.12,2.17,2.17,0,0,0,1.15-.3,2.08,2.08,0,0,0,.75-.83c0-.08.07-.18.11-.27s.05-.2.08-.3h1.61a3.47,3.47,0,0,1-.81,1.93,3.47,3.47,0,0,1-1.76,1.15,3.73,3.73,0,0,1-1.11.16,4,4,0,0,1-1.18-.18,3.81,3.81,0,0,1-1.15-.59,3.74,3.74,0,0,1-.85-.88,4.35,4.35,0,0,1-.53-1.11,6.42,6.42,0,0,1-.15-.63,4.65,4.65,0,0,1-.05-.66,4.21,4.21,0,0,1,.2-1.3,4.09,4.09,0,0,1,.54-1.11,3.81,3.81,0,0,1,.89-.9,3.61,3.61,0,0,1,1-.54,3.2,3.2,0,0,1,.61-.15,3.49,3.49,0,0,1,.65-.06,3.66,3.66,0,0,1,2.88,1.32,3.54,3.54,0,0,1,.54.88,3.85,3.85,0,0,1,.26,1h-1.61a2.25,2.25,0,0,0-.19-.57,2.5,2.5,0,0,0-.32-.48,2.44,2.44,0,0,0-.43-.35,1.94,1.94,0,0,0-.53-.23,2.56,2.56,0,0,0-.62-.07,2.16,2.16,0,0,0-.78.13,2.07,2.07,0,0,0-.61.32,2.37,2.37,0,0,0-.81,1.24,1.67,1.67,0,0,0-.08.4A3.11,3.11,0,0,0,157.53,97.46Z" transform="translate(-7.24 -6.63)"/><path class="cls-1" d="M167,101.5a2.91,2.91,0,0,1-1-.15,3.07,3.07,0,0,1-.8-.43,3.13,3.13,0,0,1-.63-.63,2.76,2.76,0,0,1-.42-.84,3,3,0,0,1-.15-1,2.92,2.92,0,0,1,.15-.93,2.74,2.74,0,0,1,.41-.82,3.33,3.33,0,0,1,.65-.65,3.19,3.19,0,0,1,.8-.41,3.69,3.69,0,0,1,.45-.11,2.63,2.63,0,0,1,.49,0,3,3,0,0,1,.93.15,3.11,3.11,0,0,1,.81.42,2.94,2.94,0,0,1,.63.64,2.8,2.8,0,0,1,.43.82c0,.15.08.3.11.46a3.57,3.57,0,0,1,0,.47,3.11,3.11,0,0,1-.13.87,2.93,2.93,0,0,1-.44.91,2.86,2.86,0,0,1-.65.65,3.06,3.06,0,0,1-.8.42,3.45,3.45,0,0,1-.46.12A3.59,3.59,0,0,1,167,101.5Zm0-1.44a1.41,1.41,0,0,0,.45-.07,1.2,1.2,0,0,0,.4-.22,1.33,1.33,0,0,0,.34-.38,1.24,1.24,0,0,0,.17-.38.84.84,0,0,0,.06-.24,2,2,0,0,0,0-.25,1.57,1.57,0,0,0-.08-.49,1.3,1.3,0,0,0-.2-.43,2,2,0,0,0-.28-.31,1.37,1.37,0,0,0-.43-.24A1.63,1.63,0,0,0,167,97a1.37,1.37,0,0,0-.85.29,1.64,1.64,0,0,0-.31.33,1.15,1.15,0,0,0-.21.43,1.44,1.44,0,0,0-.05.24,1.06,1.06,0,0,0,0,.25,1.72,1.72,0,0,0,.06.44,1.34,1.34,0,0,0,.22.47,1.18,1.18,0,0,0,.3.33,1.16,1.16,0,0,0,.41.22A1.19,1.19,0,0,0,167,100.06Z" transform="translate(-7.24 -6.63)"/><path class="cls-1" d="M170.57,95.61h1.51a.66.66,0,0,1,0,.11.4.4,0,0,1,0,.13A.58.58,0,0,1,172,96a1.26,1.26,0,0,1-.08.18l0,.08-.05.07.08.07a3.12,3.12,0,0,1,.24-.3l.26-.24a1.89,1.89,0,0,1,.28-.17,1.21,1.21,0,0,1,.3-.11l.15,0h.16a1.34,1.34,0,0,1,.4.06,1.11,1.11,0,0,1,.34.19,1.29,1.29,0,0,1,.39.75,2.34,2.34,0,0,1,0,.26,2.53,2.53,0,0,1,0,.28v4.36H173V97.35a.49.49,0,0,0,0-.13l-.05-.11a.6.6,0,0,0-.08-.08l-.1,0h-.22l-.1,0-.1,0-.11.06-.05,0,0,0v4.26h-1.51Z" transform="translate(-7.24 -6.63)"/><path class="cls-1" d="M175.26,95.61h1.51a.66.66,0,0,1,0,.11,1.3,1.3,0,0,1,0,.13l-.06.14a1.26,1.26,0,0,1-.08.18l0,.08,0,.07.08.07a1.57,1.57,0,0,1,.24-.3,2.89,2.89,0,0,1,.25-.24,2.61,2.61,0,0,1,.28-.17,1.6,1.6,0,0,1,.3-.11l.16,0H178a1.34,1.34,0,0,1,.4.06,1.31,1.31,0,0,1,.35.19,1.42,1.42,0,0,1,.39.75l0,.26a2.53,2.53,0,0,1,0,.28v4.36h-1.51V97.35a.49.49,0,0,0,0-.13l0-.11L177.5,97l-.1,0h-.22l-.1,0-.1,0-.11.06-.05,0,0,0v4.26h-1.51Z" transform="translate(-7.24 -6.63)"/><path class="cls-1" d="M185.35,98.5V99h-4.07a1.08,1.08,0,0,0,.13.37,1.42,1.42,0,0,0,.2.3,2.61,2.61,0,0,0,.27.22,1.34,1.34,0,0,0,.34.13l.19,0h.2a1.59,1.59,0,0,0,.59-.1,1.31,1.31,0,0,0,.44-.3l.07-.11.06-.1h1.54a2.77,2.77,0,0,1-.28.72,2.17,2.17,0,0,1-.4.52,2.67,2.67,0,0,1-.57.43,2.85,2.85,0,0,1-.7.28,2.21,2.21,0,0,1-.37.08,2.61,2.61,0,0,1-.4,0,2.52,2.52,0,0,1-.93-.15,2.69,2.69,0,0,1-.75-.4,2.81,2.81,0,0,1-1-1.47,3.55,3.55,0,0,1,0-1.94,2.82,2.82,0,0,1,1-1.46,2.69,2.69,0,0,1,.77-.4,3,3,0,0,1,.89-.14,2.62,2.62,0,0,1,.88.15,2.44,2.44,0,0,1,.76.42,3,3,0,0,1,.59.64,2.82,2.82,0,0,1,.39.82A3.22,3.22,0,0,1,185.35,98.5Zm-4-.51h2.57a1.4,1.4,0,0,0-.36-.61,1.3,1.3,0,0,0-.58-.35l-.18,0h-.18a1.31,1.31,0,0,0-.66.18,1.77,1.77,0,0,0-.23.19,1.19,1.19,0,0,0-.23.3A2.07,2.07,0,0,0,181.3,98Z" transform="translate(-7.24 -6.63)"/><path class="cls-1" d="M189.84,98.87h1.52a2.82,2.82,0,0,1-.56,1.6,2.91,2.91,0,0,1-.6.56,3.12,3.12,0,0,1-.74.35,2.71,2.71,0,0,1-.41.09,3,3,0,0,1-.43,0,2.75,2.75,0,0,1-1.67-.56,3.19,3.19,0,0,1-.6-.66,3.11,3.11,0,0,1-.52-1.79,3.39,3.39,0,0,1,.14-1,2.56,2.56,0,0,1,.4-.81,2.45,2.45,0,0,1,.58-.62,2.91,2.91,0,0,1,.78-.41,3,3,0,0,1,.89-.14,2.74,2.74,0,0,1,1.57.47,2.54,2.54,0,0,1,1,1.27,3.31,3.31,0,0,1,.12.42,2.42,2.42,0,0,1,0,.47h-1.51a1.78,1.78,0,0,0-.07-.39,1.2,1.2,0,0,0-.17-.34A1.15,1.15,0,0,0,189,97a1.74,1.74,0,0,0-.39,0,1.07,1.07,0,0,0-.41.07,1,1,0,0,0-.37.21,1,1,0,0,0-.29.33,1.26,1.26,0,0,0-.16.42,2,2,0,0,0-.05.24,2.44,2.44,0,0,0,0,.27,2.76,2.76,0,0,0,0,.51,1.39,1.39,0,0,0,.18.43,1.2,1.2,0,0,0,.63.53,1.18,1.18,0,0,0,.43.07,1.22,1.22,0,0,0,.4,0,1.2,1.2,0,0,0,.32-.16,1.18,1.18,0,0,0,.42-.58,1.06,1.06,0,0,0,0-.19Z" transform="translate(-7.24 -6.63)"/><path class="cls-1" d="M193.77,94.2v.39a1.08,1.08,0,0,1-.59,1v.11a1.45,1.45,0,0,1,.63-.13h1.07V97h-1.11V99.8a.18.18,0,0,0,.2.2h.91l.06,1.44H193.6a1.8,1.8,0,0,1-.48-.06,1,1,0,0,1-.37-.16.75.75,0,0,1-.27-.26,1.12,1.12,0,0,1-.16-.37,1.75,1.75,0,0,1-.06-.48V97h-.53v-1.4h.53V94.2Z" transform="translate(-7.24 -6.63)"/><path class="cls-1" d="M196.39,101.5a1,1,0,0,1-.3,0,.68.68,0,0,1-.25-.14.67.67,0,0,1-.21-.2.9.9,0,0,1-.13-.26,1,1,0,0,1-.05-.29,1,1,0,0,1,.05-.31,2,2,0,0,1,.13-.25.8.8,0,0,1,.21-.2.92.92,0,0,1,.26-.14,1,1,0,0,1,.29,0,1,1,0,0,1,.3.05.79.79,0,0,1,.26.12,1.8,1.8,0,0,1,.19.2,1.26,1.26,0,0,1,.14.26,1.15,1.15,0,0,1,0,.31,1.06,1.06,0,0,1,0,.29.7.7,0,0,1-.13.26,1,1,0,0,1-.21.21.75.75,0,0,1-.25.13l-.14,0Z" transform="translate(-7.24 -6.63)"/><path class="cls-1" d="M201.28,97.46a2.9,2.9,0,0,0,.1.79,2.53,2.53,0,0,0,.33.73,2.2,2.2,0,0,0,.48.53,2.05,2.05,0,0,0,.64.33,2.46,2.46,0,0,0,.76.12,2.19,2.19,0,0,0,1.15-.3,2.08,2.08,0,0,0,.75-.83c0-.08.07-.18.11-.27s.05-.2.08-.3h1.6a3.24,3.24,0,0,1-.26,1.06,3.62,3.62,0,0,1-2.3,2,3.75,3.75,0,0,1-1.12.16,4,4,0,0,1-1.17-.18,3.81,3.81,0,0,1-1.15-.59,3.74,3.74,0,0,1-.85-.88,4.35,4.35,0,0,1-.53-1.11,6.42,6.42,0,0,1-.15-.63,4.65,4.65,0,0,1-.05-.66,4.21,4.21,0,0,1,.2-1.3,4.09,4.09,0,0,1,.54-1.11,3.81,3.81,0,0,1,.89-.9,3.61,3.61,0,0,1,1-.54,3.2,3.2,0,0,1,.61-.15,3.47,3.47,0,0,1,.64-.06,3.65,3.65,0,0,1,3.43,2.2,3.51,3.51,0,0,1,.25,1h-1.6a1.94,1.94,0,0,0-.2-.57,2.09,2.09,0,0,0-.31-.48,2.44,2.44,0,0,0-.43-.35,1.94,1.94,0,0,0-.53-.23,2.56,2.56,0,0,0-.62-.07,2.16,2.16,0,0,0-.78.13,2.07,2.07,0,0,0-.61.32,2.37,2.37,0,0,0-.81,1.24,1.67,1.67,0,0,0-.08.4A3.11,3.11,0,0,0,201.28,97.46Z" transform="translate(-7.24 -6.63)"/><path class="cls-1" d="M210.74,101.5a3,3,0,0,1-1-.15,3.17,3.17,0,0,1-.79-.43,3.13,3.13,0,0,1-.63-.63,3,3,0,0,1-.43-.84,3.26,3.26,0,0,1-.14-1,3.22,3.22,0,0,1,.14-.93,3,3,0,0,1,.42-.82,3.33,3.33,0,0,1,.65-.65,3.19,3.19,0,0,1,.8-.41,3.69,3.69,0,0,1,.45-.11,2.63,2.63,0,0,1,.49,0,2.91,2.91,0,0,1,.92.15,3,3,0,0,1,.82.42,2.94,2.94,0,0,1,.63.64,2.8,2.8,0,0,1,.43.82c0,.15.08.3.11.46a3.57,3.57,0,0,1,0,.47,3.53,3.53,0,0,1-.13.87,2.93,2.93,0,0,1-.44.91,2.86,2.86,0,0,1-.65.65,3.23,3.23,0,0,1-.8.42,3.45,3.45,0,0,1-.46.12A3.59,3.59,0,0,1,210.74,101.5Zm0-1.44a1.41,1.41,0,0,0,.45-.07,1.2,1.2,0,0,0,.4-.22,1.5,1.5,0,0,0,.34-.38,1.54,1.54,0,0,0,.17-.38,1.4,1.4,0,0,0,.06-.24,2,2,0,0,0,0-.25,1.57,1.57,0,0,0-.08-.49,1.54,1.54,0,0,0-.2-.43,1.65,1.65,0,0,0-.29-.31,1.22,1.22,0,0,0-.42-.24,1.76,1.76,0,0,0-.45-.07,1.37,1.37,0,0,0-.85.29,1.64,1.64,0,0,0-.31.33,1.15,1.15,0,0,0-.21.43q0,.1-.06.24a2.09,2.09,0,0,0,0,.25,1.37,1.37,0,0,0,.06.44,1.34,1.34,0,0,0,.22.47,1.18,1.18,0,0,0,.3.33,1.08,1.08,0,0,0,.41.22A1.16,1.16,0,0,0,210.74,100.06Z" transform="translate(-7.24 -6.63)"/><path class="cls-1" d="M215.83,101.44h-1.51v-8h1.51Z" transform="translate(-7.24 -6.63)"/><path class="cls-1" d="M218.14,101.44h-1.51v-8h1.51Z" transform="translate(-7.24 -6.63)"/><path class="cls-1" d="M218.78,99.92a2.2,2.2,0,0,1,.09-.64,1.51,1.51,0,0,1,.3-.52,1.67,1.67,0,0,1,.5-.4,3.38,3.38,0,0,1,.71-.29,4.13,4.13,0,0,1,.44-.1l.49-.08v-.44a.39.39,0,0,0,0-.15.32.32,0,0,0-.06-.13.39.39,0,0,0-.08-.1L221,97l-.15,0-.14,0a.23.23,0,0,0-.13.06.38.38,0,0,0-.15.22.49.49,0,0,0,0,.15v.15H219v-.39a2,2,0,0,1,.08-.56,1.41,1.41,0,0,1,.25-.47,1.67,1.67,0,0,1,.94-.55,1.64,1.64,0,0,1,.32,0,2,2,0,0,1,.35,0,2.2,2.2,0,0,1,1.43.43,1.56,1.56,0,0,1,.5,1.22v4.25h-1.51a1,1,0,0,1,0-.15l0-.14.06-.14.07-.16a.77.77,0,0,1,.09-.13l-.08-.07a1.63,1.63,0,0,1-.22.32,2.39,2.39,0,0,1-.23.22,1.24,1.24,0,0,1-.27.17,1.51,1.51,0,0,1-.32.11l-.17,0h-.17a1.54,1.54,0,0,1-.43-.06,1,1,0,0,1-.4-.22.91.91,0,0,1-.28-.33,1.55,1.55,0,0,1-.17-.44,1.84,1.84,0,0,1-.05-.25A2.53,2.53,0,0,1,218.78,99.92Zm1.54-.23a.58.58,0,0,0,0,.19.23.23,0,0,0,.05.12.37.37,0,0,0,.24.17l.15,0a1.09,1.09,0,0,0,.52-.17V98.79l-.36.13a1.1,1.1,0,0,0-.28.17,1.54,1.54,0,0,0-.19.17.45.45,0,0,0-.12.21A.93.93,0,0,0,220.32,99.69Z" transform="translate(-7.24 -6.63)"/><path class="cls-1" d="M225.13,101.44h-1.5v-8h1.5v2.7a1.51,1.51,0,0,1,.23-.21,1.44,1.44,0,0,1,.22-.15,2.24,2.24,0,0,1,.22-.11l.24-.06h.25a1.29,1.29,0,0,1,.83.27,1,1,0,0,1,.28.33,1.5,1.5,0,0,1,.19.47,2.54,2.54,0,0,1,0,.29,3,3,0,0,1,0,.31v2.6c0,1.13-.42,1.69-1.27,1.69a2.19,2.19,0,0,1-.36,0,1.35,1.35,0,0,1-.34-.11,1.6,1.6,0,0,1-.29-.18,1,1,0,0,1-.24-.23,1.12,1.12,0,0,1-.2-.3l-.08.07a.7.7,0,0,0,.08.14l.08.16s0,.09.05.15,0,.11,0,.15A.57.57,0,0,1,225.13,101.44Zm-.06-3.85v1.86a.86.86,0,0,0,.08.38.77.77,0,0,0,.1.12.46.46,0,0,0,.17.09l.18,0a.5.5,0,0,0,.18,0A.38.38,0,0,0,226,100l.1-.12a.52.52,0,0,0,.07-.18,1.49,1.49,0,0,0,0-.21V97.59a.76.76,0,0,0-.09-.38.47.47,0,0,0-.1-.11.29.29,0,0,0-.15-.09.64.64,0,0,0-.2,0l-.18,0a.38.38,0,0,0-.15.09.32.32,0,0,0-.11.12.54.54,0,0,0-.07.17A1.49,1.49,0,0,0,225.07,97.59Z" transform="translate(-7.24 -6.63)"/><path class="cls-1" d="M231.17,101.5a2.91,2.91,0,0,1-.95-.15,3.07,3.07,0,0,1-.8-.43,3.13,3.13,0,0,1-.63-.63,2.76,2.76,0,0,1-.42-.84,3,3,0,0,1-.15-1,2.92,2.92,0,0,1,.15-.93,2.74,2.74,0,0,1,.41-.82,3.33,3.33,0,0,1,.65-.65,3.19,3.19,0,0,1,.8-.41,3.69,3.69,0,0,1,.45-.11,2.63,2.63,0,0,1,.49,0,3,3,0,0,1,.93.15,3.11,3.11,0,0,1,.81.42,2.94,2.94,0,0,1,.63.64,2.8,2.8,0,0,1,.43.82c0,.15.08.3.11.46a3.57,3.57,0,0,1,0,.47,3.53,3.53,0,0,1-.13.87,2.93,2.93,0,0,1-.44.91,2.86,2.86,0,0,1-.65.65,3.23,3.23,0,0,1-.8.42,3.45,3.45,0,0,1-.46.12A3.59,3.59,0,0,1,231.17,101.5Zm0-1.44a1.41,1.41,0,0,0,.45-.07,1.2,1.2,0,0,0,.4-.22,1.33,1.33,0,0,0,.34-.38,1.24,1.24,0,0,0,.17-.38,1.4,1.4,0,0,0,.06-.24,2,2,0,0,0,0-.25,1.57,1.57,0,0,0-.08-.49,1.3,1.3,0,0,0-.2-.43,1.65,1.65,0,0,0-.29-.31,1.22,1.22,0,0,0-.42-.24,1.63,1.63,0,0,0-.45-.07,1.37,1.37,0,0,0-.85.29,1.64,1.64,0,0,0-.31.33,1.15,1.15,0,0,0-.21.43,1.44,1.44,0,0,0-.05.24,1.06,1.06,0,0,0,0,.25,1.72,1.72,0,0,0,.06.44,1.34,1.34,0,0,0,.22.47,1.18,1.18,0,0,0,.3.33,1.08,1.08,0,0,0,.41.22A1.19,1.19,0,0,0,231.17,100.06Z" transform="translate(-7.24 -6.63)"/><path class="cls-1" d="M234.75,95.61h1.51a.53.53,0,0,1,0,.13s0,.09-.05.15,0,.1,0,.12a.08.08,0,0,1,0,0,.83.83,0,0,0-.07.14.57.57,0,0,1-.08.13l.08.07c.07-.11.15-.2.21-.28a1.25,1.25,0,0,1,.27-.23,1.46,1.46,0,0,1,.64-.25l.41,0h.26l-.07,1.44h-.42a1.59,1.59,0,0,0-.81.16.57.57,0,0,0-.3.5v3.73h-1.51Z" transform="translate(-7.24 -6.63)"/><path class="cls-1" d="M238.18,99.92a2.2,2.2,0,0,1,.09-.64,1.36,1.36,0,0,1,.3-.52,1.67,1.67,0,0,1,.5-.4,3.51,3.51,0,0,1,.7-.29l.45-.1.49-.08v-.44a.77.77,0,0,0,0-.15.53.53,0,0,0-.06-.13.43.43,0,0,0-.09-.1.35.35,0,0,0-.12-.07l-.15,0-.15,0a.31.31,0,0,0-.13.06.37.37,0,0,0-.14.22.49.49,0,0,0,0,.15v.15h-1.47v-.39a1.69,1.69,0,0,1,.08-.56,1.6,1.6,0,0,1,.24-.47,1.7,1.7,0,0,1,1-.55,1.53,1.53,0,0,1,.32,0,2,2,0,0,1,.35,0,2.2,2.2,0,0,1,1.43.43,1.56,1.56,0,0,1,.5,1.22v4.25h-1.51a1,1,0,0,1,0-.15.32.32,0,0,1,0-.14l.06-.14.07-.16a.77.77,0,0,1,.09-.13l-.08-.07a1.63,1.63,0,0,1-.22.32,1.7,1.7,0,0,1-.24.22,1.45,1.45,0,0,1-.26.17,1.6,1.6,0,0,1-.33.11l-.16,0h-.17a1.54,1.54,0,0,1-.43-.06,1,1,0,0,1-.4-.22.91.91,0,0,1-.28-.33,1.3,1.3,0,0,1-.17-.44,1.84,1.84,0,0,1-.05-.25A2.53,2.53,0,0,1,238.18,99.92Zm1.54-.23a1.11,1.11,0,0,0,0,.19.33.33,0,0,0,.06.12.38.38,0,0,0,.23.17l.16,0a1.12,1.12,0,0,0,.52-.17V98.79l-.36.13a1.1,1.1,0,0,0-.28.17,1,1,0,0,0-.19.17.45.45,0,0,0-.12.21A.6.6,0,0,0,239.72,99.69Z" transform="translate(-7.24 -6.63)"/><path class="cls-1" d="M244.8,94.2v.39a1.07,1.07,0,0,1-.6,1v.11a1.53,1.53,0,0,1,.64-.13h1.07V97H244.8V99.8a.18.18,0,0,0,.2.2h.91l.06,1.44h-1.34a1.75,1.75,0,0,1-.48-.06,1.18,1.18,0,0,1-.38-.16.81.81,0,0,1-.26-.26,1.12,1.12,0,0,1-.16-.37,1.75,1.75,0,0,1-.06-.48V97h-.53v-1.4h.53V94.2Z" transform="translate(-7.24 -6.63)"/><path class="cls-1" d="M251.81,98.5V99h-4.08a1.35,1.35,0,0,0,.13.37,1.42,1.42,0,0,0,.2.3,2.61,2.61,0,0,0,.27.22,1.51,1.51,0,0,0,.34.13l.19,0h.2a1.59,1.59,0,0,0,.59-.1,1.31,1.31,0,0,0,.44-.3l.07-.11a.53.53,0,0,0,.06-.1h1.54a2.46,2.46,0,0,1-.28.72,2.17,2.17,0,0,1-.4.52,2.67,2.67,0,0,1-.57.43,2.7,2.7,0,0,1-.7.28,2.21,2.21,0,0,1-.37.08,2.61,2.61,0,0,1-.4,0,2.52,2.52,0,0,1-.93-.15,2.69,2.69,0,0,1-.75-.4,2.73,2.73,0,0,1-1-1.47,3.43,3.43,0,0,1,0-1.94,2.82,2.82,0,0,1,1-1.46,2.74,2.74,0,0,1,.78-.4,2.91,2.91,0,0,1,.89-.14,2.67,2.67,0,0,1,.88.15,2.5,2.5,0,0,1,.75.42,3.3,3.3,0,0,1,.6.64,3.08,3.08,0,0,1,.38.82A3.22,3.22,0,0,1,251.81,98.5ZM247.76,98h2.56a1.4,1.4,0,0,0-.36-.61,1.25,1.25,0,0,0-.58-.35l-.18,0H249a1.3,1.3,0,0,0-.65.18,1.33,1.33,0,0,0-.24.19,1.48,1.48,0,0,0-.23.3A1.43,1.43,0,0,0,247.76,98Z" transform="translate(-7.24 -6.63)"/><path class="cls-1" d="M253,101.5a1,1,0,0,1-.3,0,.68.68,0,0,1-.25-.14.67.67,0,0,1-.21-.2.71.71,0,0,1-.13-.26.77.77,0,0,1,0-.29.75.75,0,0,1,0-.31,2,2,0,0,1,.13-.25.8.8,0,0,1,.21-.2.83.83,0,0,1,.55-.18,1,1,0,0,1,.3.05.79.79,0,0,1,.26.12,1.8,1.8,0,0,1,.19.2,1.26,1.26,0,0,1,.14.26,1.15,1.15,0,0,1,0,.31,1.06,1.06,0,0,1,0,.29.9.9,0,0,1-.13.26,1,1,0,0,1-.21.21.75.75,0,0,1-.25.13l-.14,0Z" transform="translate(-7.24 -6.63)"/><path class="cls-2" d="M220.6,65.8l-.66.82a11.18,11.18,0,0,1-19.61-4.84h35.56V59.56a25.45,25.45,0,0,0-45.26-16l3.45,2.78a21,21,0,0,1,37.26,11H226.7a15.58,15.58,0,0,0-30.85,0H126.48v4.43h59.46a25.45,25.45,0,0,0,49.05,7l1.18-3Zm-9.32-17.41a11.19,11.19,0,0,1,10.94,9H200.33A11.19,11.19,0,0,1,211.28,48.39Zm0,32.19a21.06,21.06,0,0,1-20.91-18.8h5.48a15.58,15.58,0,0,0,26.81,8.45h6.74A20.88,20.88,0,0,1,211.28,80.58Z" transform="translate(-7.24 -6.63)"/><path class="cls-2" d="M316.43,34l.61-2.21v0l.17-.62,1.33-4.82.53-1.92-4.21,4.57Zm-1-19.1a15.8,15.8,0,1,0,15.8,15.8A15.8,15.8,0,0,0,315.44,14.85Zm6.46,22h-4.57l1.33,4.27-9.3-9.75-1.45,5.48h-4.46l3.9-14.16-.73-1.08h5.31l-1.82,6.91,6.12-6.91h7.89l-1.06,4-1.8,6.8,2,.07.44,1.41L326,41.1Z" transform="translate(-7.24 -6.63)"/></svg>